# xmcd
#
# Track frame offsets:
#  150
#  21073
#  39185
#  57898
#  79877
#  107588
#  120398
#  144336
#
# Disc length: 2440 seconds
#
# Revision: 0
# Processed by: cddbd v1.5.1PL2 Copyright (c) Steve Scherf et al.
# Submitted via: Collectorz.com_Music_Collector 6.11
#
DISCID=58098608
DTITLE=Gone Fish'n' - Elemental
DYEAR=2003
DGENRE=Blues
TTITLE0=Since You Broke My Heart
TTITLE1=It's All Over Nowred Hot Mama
TTITLE2=Memphis Tennessee
TTITLE3=He'll Have To Go
TTITLE4=Big Girl
TTITLE5=Built For Speed
TTITLE6=Mystery Train
TTITLE7=Wild Thing/Sweets For My Sweet
EXTD=
EXTT0=
EXTT1=
EXTT2=
EXTT3=
EXTT4=
EXTT5=
EXTT6=
EXTT7=
PLAYORDER=
